<?xml version="1.0" standalone="no"?><!DOCTYPE svg PUBLIC "-//W3C//DTD SVG 1.1//EN" "http://www.w3.org/Graphics/SVG/1.1/DTD/svg11.dtd"><svg t="1611914085311" class="icon" viewBox="0 0 1081 1024" version="1.1" xmlns="http://www.w3.org/2000/svg" p-id="1210" xmlns:xlink="http://www.w3.org/1999/xlink" width="85.5087890625" height="81"><defs><style type="text/css"></style></defs><path d="M356.577333 1023.999988a25.9364 25.9364 0 0 1-19.035889-8.328202L148.574547 812.059152a25.960194 25.960194 0 0 1 38.071779-35.299677l175.070697 188.705153 250.024513-139.616353a26.959579 26.959579 0 0 0 13.527379-19.190556l57.869104-346.215242a25.948297 25.948297 0 0 1 51.158953 8.554253l-57.881001 346.215242a78.523045 78.523045 0 0 1-39.428087 55.917925L369.224302 1020.716297a25.900707 25.900707 0 0 1-12.646969 3.283691z" fill="#2c2c2c" p-id="1211"></path><path d="M1002.500759 404.786295a25.9364 25.9364 0 0 1-19.476094-43.044906c67.910536-77.416583 60.177206-195.66515-17.239378-263.599481S770.096342 37.9766 702.197704 115.393183a25.942348 25.942348 0 0 1-39.011677-34.205114c86.756067-98.867652 237.85344-108.837699 336.804374-22.034042s108.813904 237.877235 22.022145 336.804374a25.84122 25.84122 0 0 1-19.511787 8.827894z" fill="#2c2c2c" p-id="1212"></path><path d="M389.354756 824.658532c-1.189743 0-2.379486 0-3.640614-0.083282L79.307704 810.667153a25.960194 25.960194 0 0 1-24.365939-21.415376L1.260557 487.294979a78.523045 78.523045 0 0 1 18.38153-65.959358L297.090178 105.078111c103.757496-118.236669 284.419985-130.050818 402.704244-26.293323s130.098408 284.419985 26.35281 402.692347L448.675347 797.734645a78.523045 78.523045 0 0 1-59.320591 26.923887z m-1.29682-51.920389a27.364091 27.364091 0 0 0 21.617632-9.220509l277.44809-316.245613C772.011829 350.498317 762.363012 202.684634 665.577411 117.784567s-244.575489-75.227456-329.487454 21.58194L58.701353 455.576428a26.983373 26.983373 0 0 0-6.305638 22.605118L102.448207 759.758046z" fill="#2c2c2c" p-id="1213"></path><path d="M525.16393 376.291947a98.582113 98.582113 0 1 1 74.23997-33.57455 97.975344 97.975344 0 0 1-67.672588 33.312807c-2.201025 0.178461-4.390152 0.261743-6.567382 0.261743z m0.154667-145.315222A46.685519 46.685519 0 1 0 560.380326 308.452796a46.673622 46.673622 0 0 0-35.061729-77.476071zM962.834724 552.945003a98.6416 98.6416 0 1 1 52.420081-15.240609 98.582113 98.582113 0 0 1-52.420081 15.240609z m-0.309333-145.315222a46.947263 46.947263 0 1 0 10.410252 1.189743 46.399981 46.399981 0 0 0-10.410252-1.189743z" fill="#2c2c2c" p-id="1214"></path><path d="M133.060297 617.797899a25.960194 25.960194 0 0 1-25.579476-21.867478l-17.608198-110.348672a25.995887 25.995887 0 0 1 5.544202-20.511171l71.289407-87.065401a25.948297 25.948297 0 0 1 40.15383 32.872602l-63.913 78.047148 15.764096 98.879549a25.9364 25.9364 0 0 1-21.53435 29.743577 25.460502 25.460502 0 0 1-4.116511 0.249846z" fill="#2c2c2c" p-id="1215"></path></svg>